# xmcd
#
# Track frame offsets: 
#        150
#        17093
#        36822
#        55597
#        79935
#        97765
#        119209
#        140386
#
# Disc length: 2197 seconds
#
# Revision: 1
# Processed by: cddbd v1.5.2PL0 Copyright (c) Steve Scherf et al.
# Submitted via: ExactAudioCopyFreeDBPlugin 1.0
#
DISCID=61089308
DTITLE=Subhamita - Jodi Bondhu Hao
DYEAR=2007
DGENRE=Bengali Modern
TTITLE0=Ke Bajay Banshite
TTITLE1=Na Hoyni Hoyni Bancha
TTITLE2=Bhalobasar Ghar
TTITLE3=Chhayay Chhayay
TTITLE4=Chhotto Chhutir Din
TTITLE5=Jodi Bondhu Hao
TTITLE6=Banchar Manei Jal
TTITLE7=Bhubanmajhi
EXTD=
EXTT0=
EXTT1=
EXTT2=
EXTT3=
EXTT4=
EXTT5=
EXTT6=
EXTT7=
PLAYORDER=
